<svg width="0" height="0" class="hidden">
	<symbol id="eye-show" xmlns="http://www.w3.org/2000/svg" viewBox="0 0 18 12">
		<path
			d="M9.00332 12C14.3217 12 18 7.42588 18 6C18 4.56706 14.315 0 9.00332 0C3.75138 0 0 4.56706 0 6C0 7.42588 3.75138 12 9.00332 12ZM9.00332 9.93176C6.93176 9.93176 5.29177 8.14588 5.28513 6C5.2785 3.79765 6.93176 2.06824 9.00332 2.06824C11.055 2.06824 12.7149 3.79765 12.7149 6C12.7149 8.14588 11.055 9.93176 9.00332 9.93176ZM9.00332 7.41882C9.74032 7.41882 10.3512 6.77647 10.3512 6C10.3512 5.21647 9.74032 4.57412 9.00332 4.57412C8.25968 4.57412 7.64884 5.21647 7.64884 6C7.64884 6.77647 8.25968 7.41882 9.00332 7.41882Z"></path>
	</symbol>
	<symbol id="eye-hide" xmlns="http://www.w3.org/2000/svg" viewBox="0 0 18 12">
		<path
			d="M14.1689 11.8423C14.3681 12.046 14.6868 12.0591 14.8927 11.8423C15.1118 11.6255 15.0918 11.3298 14.8927 11.1262L3.79122 0.147823C3.59203 -0.0492744 3.26669 -0.0492744 3.06086 0.147823C2.86831 0.338351 2.86831 0.673417 3.06086 0.863945L14.1689 11.8423ZM14.7931 9.94358C16.7318 8.67558 18 6.93455 18 6.15273C18 4.81904 14.315 0.568298 9.00332 0.568298C7.87459 0.568298 6.81225 0.758826 5.8495 1.07418L7.5758 2.78236C8.01402 2.5984 8.49207 2.49329 9.00332 2.49329C11.055 2.49329 12.7149 4.10292 12.7149 6.15273C12.7149 6.65205 12.602 7.13165 12.4028 7.55212L14.7931 9.94358ZM9.00332 11.7372C10.2316 11.7372 11.3737 11.5138 12.3762 11.1459L10.6367 9.42455C10.1453 9.67421 9.58761 9.81218 9.00332 9.81218C6.93176 9.81218 5.29177 8.14999 5.28513 6.15273C5.28513 5.56144 5.42457 5.003 5.67023 4.51025L3.39948 2.2502C1.308 3.54447 0 5.36434 0 6.15273C0 7.47986 3.75138 11.7372 9.00332 11.7372ZM11.1147 6.01476C11.1147 4.86503 10.1785 3.9321 9.00332 3.9321C8.917 3.9321 8.83069 3.93867 8.75101 3.94524L11.1014 6.27099C11.1081 6.19215 11.1147 6.10017 11.1147 6.01476ZM6.88528 6.00162C6.88528 7.15793 7.84803 8.09086 9.00996 8.09086C9.10291 8.09086 9.18923 8.08429 9.28218 8.07772L6.89856 5.71912C6.89192 5.8111 6.88528 5.90964 6.88528 6.00162Z"></path>
	</symbol>
	<symbol id="copy-file" xmlns="http://www.w3.org/2000/svg" viewBox="0 0 16 21">
		<path
			d="M1.503 2.627L1.5 4.75V15.254C1.5 16.116 1.84241 16.9426 2.4519 17.5521C3.0614 18.1616 3.88805 18.504 4.75 18.504H13.366C13.2107 18.9427 12.9233 19.3225 12.5433 19.5911C12.1633 19.8598 11.7094 20.004 11.244 20.004H4.75C3.49022 20.004 2.28204 19.5036 1.39124 18.6128C0.500445 17.722 0 16.5138 0 15.254V4.75C0 3.77 0.627 2.935 1.503 2.627ZM13.75 0C14.0455 0 14.3381 0.058198 14.611 0.171271C14.884 0.284344 15.1321 0.450078 15.341 0.65901C15.5499 0.867941 15.7157 1.11598 15.8287 1.38896C15.9418 1.66194 16 1.95453 16 2.25V15.25C16 15.5455 15.9418 15.8381 15.8287 16.111C15.7157 16.384 15.5499 16.6321 15.341 16.841C15.1321 17.0499 14.884 17.2157 14.611 17.3287C14.3381 17.4418 14.0455 17.5 13.75 17.5H4.75C4.15326 17.5 3.58097 17.2629 3.15901 16.841C2.73705 16.419 2.5 15.8467 2.5 15.25V2.25C2.5 1.65326 2.73705 1.08097 3.15901 0.65901C3.58097 0.237053 4.15326 0 4.75 0H13.75ZM13.75 1.5H4.75C4.55109 1.5 4.36032 1.57902 4.21967 1.71967C4.07902 1.86032 4 2.05109 4 2.25V15.25C4 15.664 4.336 16 4.75 16H13.75C13.9489 16 14.1397 15.921 14.2803 15.7803C14.421 15.6397 14.5 15.4489 14.5 15.25V2.25C14.5 2.05109 14.421 1.86032 14.2803 1.71967C14.1397 1.57902 13.9489 1.5 13.75 1.5Z"></path>
	</symbol>
	<symbol id="keeper-arrow" xmlns="http://www.w3.org/2000/svg" viewBox="0 0 8 14">
		<path
			d="M6.29289 0.292893C6.68342 -0.0976311 7.31658 -0.0976311 7.70711 0.292893C8.09763 0.683417 8.09763 1.31658 7.70711 1.70711L6.29289 0.292893ZM1 7L0.292893 7.70711C-0.097631 7.31658 -0.097631 6.68342 0.292893 6.29289L1 7ZM7.70711 12.2929C8.09763 12.6834 8.09763 13.3166 7.70711 13.7071C7.31658 14.0976 6.68342 14.0976 6.29289 13.7071L7.70711 12.2929ZM7.70711 1.70711L1.70711 7.70711L0.292893 6.29289L6.29289 0.292893L7.70711 1.70711ZM1.70711 6.29289L7.70711 12.2929L6.29289 13.7071L0.292893 7.70711L1.70711 6.29289Z"></path>
	</symbol>
	<symbol id="file-eye" fill="none" xmlns="http://www.w3.org/2000/svg" viewBox="0 0 24 24">
		<path
			d="M17,18C17.56,18 18,18.44 18,19C18,19.56 17.56,20 17,20C16.44,20 16,19.56 16,19C16,18.44 16.44,18 17,18M17,15C14.27,15 11.94,16.66 11,19C11.94,21.34 14.27,23 17,23C19.73,23 22.06,21.34 23,19C22.06,16.66 19.73,15 17,15M17,21.5A2.5,2.5 0 0,1 14.5,19A2.5,2.5 0 0,1 17,16.5A2.5,2.5 0 0,1 19.5,19A2.5,2.5 0 0,1 17,21.5M9.27,20H6V4H13V9H18V13.07C18.7,13.15 19.36,13.32 20,13.56V8L14,2H6A2,2 0 0,0 4,4V20A2,2 0 0,0 6,22H10.5C10,21.41 9.59,20.73 9.27,20Z"
			fill="#64A24C"></path>
	</symbol>
	<symbol id="cog" xmlns="http://www.w3.org/2000/svg" viewBox="0 0 24 24">
		<path
			d="M11.1447 22H12.8647C13.4286 22 13.8515 21.6617 13.9737 21.1071L14.4436 19.1241C14.7632 19.0113 15.0639 18.8891 15.3459 18.7575L17.0846 19.8289C17.5451 20.1203 18.0996 20.0733 18.485 19.688L19.6974 18.4756C20.0827 18.0902 20.1391 17.5169 19.8289 17.047L18.7669 15.3271C18.8985 15.0451 19.0207 14.7444 19.1147 14.453L21.1165 13.9831C21.6711 13.8609 22 13.438 22 12.8741V11.1823C22 10.6278 21.6711 10.1955 21.1165 10.0733L19.1335 9.59398C19.0346 9.27955 18.9101 8.99946 18.8007 8.75372C18.7957 8.74238 18.7907 8.73112 18.7857 8.71992L19.8477 6.96241C20.1485 6.48308 20.1109 5.94737 19.7068 5.55263L18.485 4.34023C18.0902 3.98308 17.5921 3.91729 17.1128 4.18045L15.3459 5.27068C15.0733 5.1391 14.7726 5.01692 14.453 4.90414L13.9737 2.89286C13.8515 2.33835 13.4286 2 12.8647 2H11.1447C10.5714 2 10.1485 2.33835 10.0263 2.89286L9.55639 4.89474C9.23684 4.99812 8.92669 5.1203 8.64474 5.26128L6.88722 4.18045C6.4079 3.91729 5.91917 3.97368 5.51504 4.34023L4.29323 5.55263C3.8891 5.94737 3.8515 6.48308 4.15226 6.96241L5.21429 8.71992C5.1015 8.97368 4.97932 9.26504 4.86654 9.59398L2.88346 10.0733C2.32895 10.1955 2 10.6278 2 11.1823V12.8741C2 13.438 2.32895 13.8609 2.88346 13.9831L4.88534 14.453C4.97932 14.7444 5.1015 15.0451 5.23308 15.3271L4.17105 17.047C3.8609 17.5169 3.91729 18.0902 4.31203 18.4756L5.51504 19.688C5.90038 20.0733 6.45489 20.1203 6.92481 19.8289L8.65414 18.7575C8.93609 18.8891 9.23684 19.0113 9.55639 19.1241L10.0263 21.1071C10.1485 21.6617 10.5714 22 11.1447 22ZM12 15.2895C10.1955 15.2895 8.71993 13.8045 8.71993 11.9906C8.71993 10.1955 10.1955 8.71992 12 8.71992C13.8139 8.71992 15.2895 10.1955 15.2895 11.9906C15.2895 13.8045 13.8139 15.2895 12 15.2895Z"
			fill="#C5CECB"></path>
		<path
			d="M11.1447 22H12.8647C13.4286 22 13.8515 21.6617 13.9737 21.1071L14.4436 19.1241C14.7632 19.0113 15.0639 18.8891 15.3459 18.7575L17.0846 19.8289C17.5451 20.1203 18.0996 20.0733 18.485 19.688L19.6974 18.4756C20.0827 18.0902 20.1391 17.5169 19.8289 17.047L18.7669 15.3271C18.8985 15.0451 19.0207 14.7444 19.1147 14.453L21.1165 13.9831C21.6711 13.8609 22 13.438 22 12.8741V11.1823C22 10.6278 21.6711 10.1955 21.1165 10.0733L19.1335 9.59398C19.0346 9.27955 18.9101 8.99946 18.8007 8.75372C18.7957 8.74238 18.7907 8.73112 18.7857 8.71992L19.8477 6.96241C20.1485 6.48308 20.1109 5.94737 19.7068 5.55263L18.485 4.34023C18.0902 3.98308 17.5921 3.91729 17.1128 4.18045L15.3459 5.27068C15.0733 5.1391 14.7726 5.01692 14.453 4.90414L13.9737 2.89286C13.8515 2.33835 13.4286 2 12.8647 2H11.1447C10.5714 2 10.1485 2.33835 10.0263 2.89286L9.55639 4.89474C9.23684 4.99812 8.92669 5.1203 8.64474 5.26128L6.88722 4.18045C6.4079 3.91729 5.91917 3.97368 5.51504 4.34023L4.29323 5.55263C3.8891 5.94737 3.8515 6.48308 4.15226 6.96241L5.21429 8.71992C5.1015 8.97368 4.97932 9.26504 4.86654 9.59398L2.88346 10.0733C2.32895 10.1955 2 10.6278 2 11.1823V12.8741C2 13.438 2.32895 13.8609 2.88346 13.9831L4.88534 14.453C4.97932 14.7444 5.1015 15.0451 5.23308 15.3271L4.17105 17.047C3.8609 17.5169 3.91729 18.0902 4.31203 18.4756L5.51504 19.688C5.90038 20.0733 6.45489 20.1203 6.92481 19.8289L8.65414 18.7575C8.93609 18.8891 9.23684 19.0113 9.55639 19.1241L10.0263 21.1071C10.1485 21.6617 10.5714 22 11.1447 22ZM12 15.2895C10.1955 15.2895 8.71993 13.8045 8.71993 11.9906C8.71993 10.1955 10.1955 8.71992 12 8.71992C13.8139 8.71992 15.2895 10.1955 15.2895 11.9906C15.2895 13.8045 13.8139 15.2895 12 15.2895Z"
			stroke="#C5CECB"></path>
	</symbol>
	<symbol id="points" xmlns="http://www.w3.org/2000/svg" viewBox="0 0 16 16">
		<path
			d="M3 9.5a1.5 1.5 0 1 1 0-3 1.5 1.5 0 0 1 0 3zm5 0a1.5 1.5 0 1 1 0-3 1.5 1.5 0 0 1 0 3zm5 0a1.5 1.5 0 1 1 0-3 1.5 1.5 0 0 1 0 3z"></path>
	</symbol>
	<symbol id="plus" xmlns="http://www.w3.org/2000/svg" viewBox="0 0 32 32">
		<path fill-rule="evenodd" clip-rule="evenodd"
			  d="M16 32C24.8366 32 32 24.8366 32 16C32 7.16344 24.8366 0 16 0C7.16344 0 0 7.16344 0 16C0 24.8366 7.16344 32 16 32ZM17.2947 9.33333C17.2947 8.67059 16.7575 8.13333 16.0947 8.13333C15.432 8.13333 14.8947 8.67059 14.8947 9.33333V14.8H14.8748H14.8418H14.8088H14.7759H14.743H14.7102H14.6774H14.6447H14.612H14.5794H14.5468H14.5142H14.4817H14.4493H14.4169H14.3846H14.3523H14.3201H14.2879H14.2558H14.2237H14.1917H14.1597H14.1278H14.096H14.0642H14.0325H14.0008H13.9692H13.9377H13.9062H13.8748H13.8434H13.8121H13.7809H13.7497H13.7186H13.6875H13.6565H13.6256H13.5948H13.564H13.5333H13.5026H13.4721H13.4415H13.4111H13.3807H13.3504H13.3202H13.2901H13.26H13.23H13.2H13.1702H13.1404H13.1107H13.081H13.0515H13.022H12.9926H12.9633H12.934H12.9048H12.8758H12.8467H12.8178H12.789H12.7602H12.7315H12.7029H12.6744H12.646H12.6176H12.5894H12.5612H12.5331H12.5051H12.4772H12.4494H12.4217H12.394H12.3665H12.339H12.3116H12.2844H12.2572H12.2301H12.2031H12.1762H12.1494H12.1226H12.096H12.0695H12.0431H12.0167H11.9905H11.9644H11.9384H11.9124H11.8866H11.8609H11.8352H11.8097H11.7843H11.759H11.7337H11.7086H11.6836H11.6587H11.6339H11.6092H11.5846H11.5602H11.5358H11.5115H11.4874H11.4633H11.4394H11.4156H11.3919H11.3683H11.3448H11.3215H11.2982H11.2751H11.252H11.2291H11.2063H11.1837H11.1611H11.1387H11.1164H11.0283H11.0066H10.985H10.9635H10.9421H10.9209H10.8998H10.8788H10.858H10.8373H10.8167H10.7962H10.7758H10.7556H10.7355H10.7156H10.6958H10.6761H10.6565H10.6371H10.6178H10.5986H10.5795H10.5606H10.5419H10.5232H10.5047H10.4864H10.4682H10.3966H10.3791H10.3617H10.3445H10.3274H10.3104H10.2936H10.2769H10.2604H9.8104H9.52675H9.52077H9.51497H9.50935H9.50392H9.49867H9.4936H9.48871H9.48401H9.4795H9.47517H9.47102H9.46707H9.4633H9.45972H9.45632H9.45312H9.45011H9.44728H9.44465H9.44221H9.43996H9.43791H9.43604H9.43437H9.4329H9.43162H9.43053H9.42964H9.42895H9.42846H9.42816L9.42806 16V14.8C8.76532 14.8 8.22806 15.3373 8.22806 16C8.22806 16.6627 8.76532 17.2 9.42806 17.2V16L9.42816 17.2H9.42846H9.42895H9.42964H9.43053H9.43162H9.4329H9.43437H9.43604H9.43791H9.43996H9.44221H9.44465H9.44728H9.45011H9.45312H9.45632H9.45972H9.4633H9.46707H9.47102H9.47517H9.4795H9.48401H9.48871H9.4936H9.49867H9.50392H9.50935H9.51497H9.52077H9.52675H9.8104H10.2604H10.2769H10.2936H10.3104H10.3274H10.3445H10.3617H10.3791H10.3966H10.4682H10.4864H10.5047H10.5232H10.5419H10.5606H10.5795H10.5986H10.6178H10.6371H10.6565H10.6761H10.6958H10.7156H10.7355H10.7556H10.7758H10.7962H10.8167H10.8373H10.858H10.8788H10.8998H10.9209H10.9421H10.9635H10.985H11.0066H11.0283H11.0501H11.0721H11.0942H11.1164H11.1387H11.1611H11.1837H11.2063H11.2291H11.252H11.2751H11.2982H11.3215H11.3448H11.3683H11.3919H11.4156H11.4394H11.4633H11.4874H11.5115H11.5358H11.5602H11.5846H11.6092H11.6339H11.6587H11.6836H11.7086H11.7337H11.759H11.7843H11.8097H11.8352H11.8609H11.8866H11.9124H11.9384H11.9644H11.9905H12.0167H12.0431H12.0695H12.096H12.1226H12.1494H12.1762H12.2031H12.2301H12.2572H12.2844H12.3116H12.339H12.3665H12.394H12.4217H12.4494H12.4772H12.5051H12.5331H12.5612H12.5894H12.6176H12.646H12.6744H12.7029H12.7315H12.7602H12.789H12.8178H12.8467H12.8758H12.9048H12.934H12.9633H12.9926H13.022H13.0515H13.081H13.1107H13.1404H13.1702H13.2H13.23H13.26H13.2901H13.3202H13.3504H13.3807H13.4111H13.4415H13.4721H13.5026H13.5333H13.564H13.5948H13.7186H13.7497H13.7809H13.8121H13.8434H13.8748H13.9062H13.9377H13.9692H14.0008H14.0325H14.0642H14.096H14.1278H14.1597H14.1917H14.2237H14.2558H14.2879H14.3201H14.3523H14.3846H14.4169H14.4493H14.4817H14.5142H14.5468H14.5794H14.612H14.6447H14.6774H14.7102H14.743H14.7759H14.8088H14.8418H14.8748H14.8947V22.6667C14.8947 23.3294 15.432 23.8667 16.0947 23.8667C16.7575 23.8667 17.2947 23.3294 17.2947 22.6667V17.2H17.2974H17.3321H17.3668H17.4016H17.4363H17.4711H17.5058H17.5405H17.5753H17.61H17.6448H17.6795H17.7142H17.749H17.7837H17.8184H17.8531H17.8878H17.9226H17.9572H17.9919H18.0266H18.0613H18.096H18.1306H18.1653H18.1999H18.2345H18.2692H18.3038H18.3384H18.3729H18.4075H18.442H18.4766H18.5111H18.5456H18.5801H18.6145H18.649H18.6834H18.7178H18.7522H18.7866H18.8209H18.8553H18.8896H18.9239H18.9581H18.9924H19.0266H19.0608H19.0949H19.1291H19.1632H19.1973H19.2313H19.2654H19.2994H19.3333H19.3673H19.4012H19.4689H19.5027H19.5365H19.5702H19.604H19.6376H19.6713H19.7049H19.7385H19.772H19.8055H19.839H19.8724H19.9058H19.9391H19.9724H20.0057H20.0389H20.0721H20.1052H20.1383H20.1714H20.2044H20.2374H20.2703H20.3032H20.336H20.3688H20.4015H20.4342H20.4668H20.4994H20.5319H20.5644H20.5969H20.6292H20.6616H20.6938H20.7261H20.7582H20.7904H20.8224H20.8544H20.8864H20.9183H20.9501H20.9819H21.0136H21.0453H21.0769H21.1084H21.1399H21.1713H21.2027H21.234H21.2652H21.2964H21.3275H21.3585H21.3895H21.4204H21.4513H21.482H21.5127H21.5434H21.574H21.6045H21.6349H21.6653H21.6956H21.7258H21.7559H21.786H21.816H21.8459H22.7614C23.4241 17.2 23.9614 16.6627 23.9614 16C23.9614 15.3373 23.4241 14.8 22.7614 14.8H21.8459H21.816H21.786H21.7559H21.7258H21.6956H21.6653H21.6349H21.6045H21.574H21.5434H21.5127H21.482H21.4513H21.4204H21.3895H21.3585H21.3275H21.2964H21.2652H21.234H21.2027H21.1713H21.1399H21.1084H21.0769H21.0453H21.0136H20.9819H20.9501H20.9183H20.8864H20.8544H20.8224H20.7904H20.7582H20.7261H20.6938H20.6616H20.6292H20.5969H20.4668H20.4342H20.4015H20.3688H20.336H20.3032H20.2703H20.2374H20.2044H20.1714H20.1383H20.1052H20.0721H20.0389H20.0057H19.9724H19.9391H19.9058H19.8724H19.839H19.8055H19.772H19.7385H19.7049H19.6713H19.6376H19.604H19.5702H19.5365H19.5027H19.4689H19.4012H19.3673H19.3333H19.2994H19.2654H19.2313H19.1973H19.1632H19.1291H19.0949H19.0608H19.0266H18.9924H18.9581H18.9239H18.8896H18.8553H18.8209H18.7866H18.7522H18.7178H18.6834H18.649H18.6145H18.5801H18.5456H18.5111H18.4766H18.442H18.4075H18.3729H18.3384H18.3038H18.2692H18.2345H18.1999H18.1653H18.1306H18.096H18.0613H18.0266H17.9919H17.9572H17.9226H17.8878H17.8531H17.8184H17.7837H17.749H17.7142H17.6795H17.6448H17.61H17.5753H17.5405H17.5058H17.4711H17.4363H17.4016H17.3668H17.3321H17.2974H17.2947V9.33333Z"
			  fill="#35B287"></path>
	</symbol>
	<symbol id="search" xmlns="http://www.w3.org/2000/svg" viewBox="0 0 18 18">
		<path
			d="M7.35896 14.7179C8.84571 14.7179 10.239 14.2691 11.3984 13.5023L15.494 17.6073C15.7652 17.8691 16.1112 18 16.4852 18C17.2613 18 17.8317 17.3922 17.8317 16.6255C17.8317 16.2701 17.7101 15.9242 17.4483 15.6623L13.3808 11.5761C14.2223 10.3792 14.7179 8.92987 14.7179 7.35896C14.7179 3.31013 11.4078 0 7.35896 0C3.31948 0 0 3.31013 0 7.35896C0 11.4078 3.31013 14.7179 7.35896 14.7179ZM7.35896 12.7543C4.3948 12.7543 1.96364 10.3231 1.96364 7.35896C1.96364 4.3948 4.3948 1.96364 7.35896 1.96364C10.3231 1.96364 12.7543 4.3948 12.7543 7.35896C12.7543 10.3231 10.3231 12.7543 7.35896 12.7543Z"
			fill="#C5CECB"></path>
	</symbol>
	<symbol id="exit" xmlns="http://www.w3.org/2000/svg" viewBox="0 0 24 24">
		<path
			d="M0 8C0 3.58172 3.58172 0 8 0H16C20.4183 0 24 3.58172 24 8V16C24 20.4183 20.4183 24 16 24H8C3.58172 24 0 20.4183 0 16V8Z"
			fill="#35B287"></path>
		<path
			d="M7 7.09981V16.8998C7 17.0855 7.07024 17.2635 7.19526 17.3948C7.32029 17.526 7.48986 17.5998 7.66667 17.5998H9.66667V16.1998H8.33333V7.7998H9.66667V6.39981H7.66667C7.48986 6.39981 7.32029 6.47356 7.19526 6.60483C7.07024 6.73611 7 6.91415 7 7.09981ZM16.4947 6.42081L11.1613 5.02081C11.0631 4.99508 10.9605 4.99318 10.8615 5.01528C10.7624 5.03737 10.6695 5.08287 10.5897 5.14832C10.5098 5.21376 10.4453 5.29744 10.4009 5.393C10.3565 5.48855 10.3334 5.59348 10.3333 5.69981V18.2998C10.3331 18.4062 10.356 18.5113 10.4004 18.607C10.4447 18.7027 10.5093 18.7865 10.5891 18.852C10.669 18.9175 10.7621 18.963 10.8613 18.9849C10.9604 19.0069 11.0631 19.0048 11.1613 18.9788L16.4947 17.5788C16.639 17.541 16.7671 17.4537 16.8586 17.3306C16.9502 17.2076 17 17.0559 17 16.8998V7.09981C17 6.94366 16.9502 6.79202 16.8586 6.66898C16.7671 6.54595 16.639 6.45859 16.4947 6.42081ZM13.6667 12.1314C13.659 12.3116 13.5854 12.4818 13.4612 12.6065C13.337 12.7312 13.1718 12.8008 13 12.8008C12.8282 12.8008 12.663 12.7312 12.5388 12.6065C12.4146 12.4818 12.341 12.3116 12.3333 12.1314V11.8675C12.3334 11.6819 12.4037 11.5038 12.5288 11.3726C12.6539 11.2414 12.8235 11.1678 13.0003 11.1679C13.1771 11.1679 13.3467 11.2418 13.4716 11.3731C13.5966 11.5045 13.6668 11.6826 13.6667 11.8682V12.1314Z"
			fill="white"></path>
	</symbol>
	<symbol id="edit" xmlns="http://www.w3.org/2000/svg" viewBox="0 0 24 24">
		<path
			d="M0 8C0 3.58172 3.58172 0 8 0H16C20.4183 0 24 3.58172 24 8V16C24 20.4183 20.4183 24 16 24H8C3.58172 24 0 20.4183 0 16V8Z"
			fill="#35B287"></path>
		<path
			d="M19.7682 5.962L18.0116 4.22213C17.8606 4.07954 17.66 4 17.4513 4C17.2427 4 17.0421 4.07954 16.8911 4.22213L15.3291 5.7739H6.94953C6.6977 5.7739 6.45618 5.87299 6.27811 6.04936C6.10004 6.22573 6 6.46494 6 6.71437V17.0595C6 17.309 6.10004 17.5482 6.27811 17.7245C6.45618 17.9009 6.6977 18 6.94953 18H17.3944C17.6462 18 17.8877 17.9009 18.0658 17.7245C18.2439 17.5482 18.3439 17.309 18.3439 17.0595V8.48245L19.7682 7.07175C19.9166 6.92451 20 6.72495 20 6.51687C20 6.3088 19.9166 6.10924 19.7682 5.962ZM13.0408 12.4183L11.0515 12.8556L11.5263 10.9042L16.0603 6.40402L17.5938 7.92287L13.0408 12.4183ZM18.1065 7.38681L16.573 5.86795L17.4513 4.99802L18.9848 6.51687L18.1065 7.38681Z"
			fill="white"></path>
	</symbol>
	<symbol id="safe" xmlns="http://www.w3.org/2000/svg" viewBox="0 0 24 24">
		<path
			d="M0 8C0 3.58172 3.58172 0 8 0H16C20.4183 0 24 3.58172 24 8V16C24 20.4183 20.4183 24 16 24H8C3.58172 24 0 20.4183 0 16V8Z"
			fill="#35B287"></path>
		<path
			d="M11.9965 19C12.1242 19 12.3158 18.9587 12.5003 18.8624C16.5807 16.7091 18 15.7115 18 13.2074V8.01327C18 7.18772 17.6736 6.89189 16.9568 6.59607C16.1762 6.27273 13.5222 5.37838 12.7558 5.12383C12.5145 5.04816 12.2448 5 11.9965 5C11.7552 5 11.4784 5.06192 11.2442 5.12383C10.4778 5.3371 7.82377 6.27961 7.04317 6.59607C6.32643 6.88501 6 7.18772 6 8.01327V13.2074C6 15.7115 7.41928 16.6953 11.4997 18.8624C11.6842 18.9587 11.8758 19 11.9965 19ZM11.9965 17.5415C11.8971 17.5415 11.7978 17.5071 11.592 17.3833C8.356 15.4708 7.34831 14.9548 7.34831 12.9528V11.8314H12.1171V6.32088C12.1881 6.33464 12.2732 6.35528 12.3797 6.38968C13.3164 6.74742 15.3389 7.44226 16.3962 7.80688C16.602 7.88256 16.6517 7.98575 16.6517 8.23342V11.8314H12.1171V17.5209C12.0745 17.5346 12.039 17.5415 11.9965 17.5415Z"
			fill="white"></path>
	</symbol>
	<symbol id="pen" xmlns="http://www.w3.org/2000/svg" viewBox="0 0 24 24">
		<path
			d="M4.41999 20.5792C4.28125 20.5789 4.14408 20.5498 4.0172 20.4937C3.89031 20.4376 3.7765 20.3556 3.68299 20.2532C3.58779 20.1515 3.51514 20.0309 3.46982 19.8993C3.42449 19.7676 3.40751 19.6278 3.41999 19.4892L3.66499 16.7951L14.983 5.48115L18.52 9.01715L7.20499 20.3302L4.51099 20.5752C4.48074 20.5779 4.45037 20.5793 4.41999 20.5792ZM19.226 8.31015L15.69 4.77415L17.811 2.65315C17.9039 2.56017 18.0142 2.48641 18.1355 2.43609C18.2569 2.38577 18.3871 2.35986 18.5185 2.35986C18.6499 2.35986 18.78 2.38577 18.9014 2.43609C19.0228 2.48641 19.1331 2.56017 19.226 2.65315L21.347 4.77415C21.44 4.86702 21.5137 4.97731 21.5641 5.09871C21.6144 5.22011 21.6403 5.35023 21.6403 5.48165C21.6403 5.61307 21.6144 5.74319 21.5641 5.86459C21.5137 5.98599 21.44 6.09628 21.347 6.18915L19.227 8.30915L19.226 8.31015Z"
			fill="#35B287"></path>
	</symbol>
	<symbol id="lock" xmlns="http://www.w3.org/2000/svg" viewBox="0 0 41 50">
		<mask id="path-1-inside-1_7_5827" fill="white">
			<path fill-rule="evenodd" clip-rule="evenodd"
				  d="M5.30768 17.3078C2.54625 17.3078 0.307678 19.5463 0.307678 22.3078V45.0001C0.307678 47.7615 2.54625 50.0001 5.30768 50.0001H35.6923C38.4537 50.0001 40.6923 47.7615 40.6923 45.0001V22.3078C40.6923 19.5463 38.4537 17.3078 35.6923 17.3078H5.30768ZM20.4999 38.4616C23.1551 38.4616 25.3076 36.3091 25.3076 33.6539C25.3076 30.9987 23.1551 28.8462 20.4999 28.8462C17.8446 28.8462 15.6922 30.9987 15.6922 33.6539C15.6922 36.3091 17.8446 38.4616 20.4999 38.4616Z"/>
		</mask>
		<path fill-rule="evenodd" clip-rule="evenodd"
			  d="M5.30768 17.3078C2.54625 17.3078 0.307678 19.5463 0.307678 22.3078V45.0001C0.307678 47.7615 2.54625 50.0001 5.30768 50.0001H35.6923C38.4537 50.0001 40.6923 47.7615 40.6923 45.0001V22.3078C40.6923 19.5463 38.4537 17.3078 35.6923 17.3078H5.30768ZM20.4999 38.4616C23.1551 38.4616 25.3076 36.3091 25.3076 33.6539C25.3076 30.9987 23.1551 28.8462 20.4999 28.8462C17.8446 28.8462 15.6922 30.9987 15.6922 33.6539C15.6922 36.3091 17.8446 38.4616 20.4999 38.4616Z"
			  fill="#C5CECB"></path>
		<path
			d="M1.30768 22.3078C1.30768 20.0986 3.09854 18.3078 5.30768 18.3078V16.3078C1.99397 16.3078 -0.692322 18.9941 -0.692322 22.3078H1.30768ZM1.30768 45.0001V22.3078H-0.692322V45.0001H1.30768ZM5.30768 49.0001C3.09854 49.0001 1.30768 47.2092 1.30768 45.0001H-0.692322C-0.692322 48.3138 1.99397 51.0001 5.30768 51.0001V49.0001ZM35.6923 49.0001H5.30768V51.0001H35.6923V49.0001ZM39.6923 45.0001C39.6923 47.2092 37.9014 49.0001 35.6923 49.0001V51.0001C39.006 51.0001 41.6923 48.3138 41.6923 45.0001H39.6923ZM39.6923 22.3078V45.0001H41.6923V22.3078H39.6923ZM35.6923 18.3078C37.9014 18.3078 39.6923 20.0986 39.6923 22.3078H41.6923C41.6923 18.9941 39.006 16.3078 35.6923 16.3078V18.3078ZM5.30768 18.3078H35.6923V16.3078H5.30768V18.3078ZM24.3076 33.6539C24.3076 35.7569 22.6028 37.4616 20.4999 37.4616V39.4616C23.7074 39.4616 26.3076 36.8614 26.3076 33.6539H24.3076ZM20.4999 29.8462C22.6028 29.8462 24.3076 31.551 24.3076 33.6539H26.3076C26.3076 30.4464 23.7074 27.8462 20.4999 27.8462V29.8462ZM16.6922 33.6539C16.6922 31.551 18.3969 29.8462 20.4999 29.8462V27.8462C17.2924 27.8462 14.6922 30.4464 14.6922 33.6539H16.6922ZM20.4999 37.4616C18.3969 37.4616 16.6922 35.7569 16.6922 33.6539H14.6922C14.6922 36.8614 17.2924 39.4616 20.4999 39.4616V37.4616Z"
			fill="#C5CECB" mask="url(#path-1-inside-1_7_5827)"></path>
		<path fill-rule="evenodd" clip-rule="evenodd"
			  d="M20.5 0C12.5343 0 6.0769 6.45743 6.0769 14.4231V23.0769H12.2581V14.0108C12.2581 9.45905 15.9481 5.76908 20.4999 5.76908C25.0517 5.76908 28.7416 9.45904 28.7416 14.0108V23.0769H34.9231V14.4231C34.9231 6.45743 28.4656 0 20.5 0Z"
			  fill="#C5CECB" fill-opacity="0.5"></path>
	</symbol>

	<symbol id="download" xmlns="http://www.w3.org/2000/svg" viewBox="0 0 24 24">
		<rect width="24" height="24" rx="8" fill="#35B287"></rect>
		<path d="M17 10H14.3333V6H10.3333V10H7.66667L12.3333 15.3333L17 10ZM7 16.6667H17.6667V18H7V16.6667Z"
			  fill="white"></path>
	</symbol>
	<symbol id="recovery" xmlns="http://www.w3.org/2000/svg" viewBox="0 0 24 24">
		<rect width="24" height="24" rx="8" fill="#35B287"></rect>
		<rect width="24" height="24" rx="8" fill="#35B287"></rect>
		<path
			d="M8.17776 11.3333C8.53332 9.55556 10.1333 8.22222 12 8.22222C13.3333 8.22222 14.4 8.84444 15.1111 9.82222L16.6222 8.04444C15.5555 6.8 13.8667 6 12 6C8.88887 6 6.3111 8.31111 5.86665 11.3333H3.99998L7.1111 14.8889L10.2222 11.3333H8.17776ZM16.8889 9.55556L13.7778 13.1111H15.8222C15.3778 14.8889 13.8667 16.2222 12 16.2222C10.6667 16.2222 9.59998 15.6 8.88887 14.6222L7.37776 16.3111C8.44443 17.6444 10.1333 18.4444 12 18.4444C15.1111 18.4444 17.6889 16.1333 18.1333 13.1111H20L16.8889 9.55556Z"
			fill="white"></path>
	</symbol>
	<symbol id="points" xmlns="http://www.w3.org/2000/svg" viewBox="0 0 24 24">
		<path
			d="M80,128a16,16,0,1,1-16-16A16.01833,16.01833,0,0,1,80,128Zm112-16a16,16,0,1,0,16,16A16.01833,16.01833,0,0,0,192,112Zm-64,0a16,16,0,1,0,16,16A16.01833,16.01833,0,0,0,128,112Z"></path>
	</symbol>
	<symbol id="circle" xmlns="http://www.w3.org/2000/svg" viewBox="0 0 24 24">
		<circle cx="12" cy="12" r="11.5" stroke="#C5CECB" fill="none"></circle>
	</symbol>
	<symbol id="checkbox" xmlns="http://www.w3.org/2000/svg" viewBox="0 0 24 24">
		<circle cx="12" cy="12" r="12" fill="#35B287"></circle>
		<path
			d="M7.84853 11.6515C7.3799 11.1828 6.6201 11.1828 6.15147 11.6515C5.68284 12.1201 5.68284 12.8799 6.15147 13.3485L7.84853 11.6515ZM10 15.5L9.15147 16.3485C9.6201 16.8172 10.3799 16.8172 10.8485 16.3485L10 15.5ZM17.3485 9.84853C17.8172 9.3799 17.8172 8.6201 17.3485 8.15147C16.8799 7.68284 16.1201 7.68284 15.6515 8.15147L17.3485 9.84853ZM6.15147 13.3485L9.15147 16.3485L10.8485 14.6515L7.84853 11.6515L6.15147 13.3485ZM10.8485 16.3485L17.3485 9.84853L15.6515 8.15147L9.15147 14.6515L10.8485 16.3485Z"
			fill="white"></path>
	</symbol>
</svg>
